<svg xmlns="http://www.w3.org/2000/svg" width="512" height="512" viewBox="0 0 512 512" fill="none" role="img" aria-label="GistClaw logo">
	<polygon points="148,214 190,150 230,170 256,140 282,170 322,150 364,214 332,254 180,254" fill="#16212D" stroke="#4C637C" stroke-width="6" />
	<rect x="182" y="168" width="148" height="16" fill="#FF5C39" />
	<rect x="186" y="190" width="140" height="32" fill="#0A0F14" stroke="#4C637C" stroke-width="4" />
	<rect x="198" y="199" width="22" height="14" fill="#F4F7FB" />
	<rect x="228" y="199" width="22" height="14" fill="#F4F7FB" />
	<rect x="258" y="199" width="22" height="14" fill="#F4F7FB" />
	<rect x="288" y="199" width="22" height="14" fill="#F4F7FB" />
	<path d="M88 270 L172 224 L220 240 L204 276 L150 310 L110 336 L88 314 Z" fill="#FF5C39" />
	<path d="M424 270 L340 224 L292 240 L308 276 L362 310 L402 336 L424 314 Z" fill="#FF5C39" />
	<path d="M110 286 L156 262 L180 270 L166 294 L126 318 Z" fill="#F4F7FB" />
	<path d="M402 286 L356 262 L332 270 L346 294 L386 318 Z" fill="#F4F7FB" />
	<path d="M206 252 L306 252 L324 316 L286 350 L226 350 L188 316 Z" fill="#16212D" stroke="#4C637C" stroke-width="6" />
	<rect x="220" y="270" width="72" height="14" fill="#FF5C39" />
	<rect x="236" y="348" width="40" height="38" fill="#F4F7FB" />
	<rect x="122" y="392" width="268" height="14" fill="#314356" />
	<rect x="122" y="392" width="96" height="14" fill="#FF5C39" />
	<circle cx="406" cy="399" r="8" fill="#FF5C39" />
</svg>
