<svg xmlns="http://www.w3.org/2000/svg" width="1280" height="640" viewBox="0 0 1280 640" fill="none" role="img" aria-label="GistClaw social preview banner">
	<rect width="1280" height="640" fill="#0A0F14" />
	<rect x="24" y="24" width="1232" height="592" fill="#121A23" stroke="#4C637C" stroke-width="4" />
	<rect x="56" y="56" width="1168" height="528" fill="url(#banner-bg)" stroke="#314356" stroke-width="2" />
	<rect x="56" y="56" width="184" height="22" fill="#FF5C39" />
	<rect x="1138" y="56" width="86" height="18" fill="#53C7F0" />
	<text x="74" y="72" fill="#0A0F14" font-family="IBM Plex Mono, monospace" font-size="18" font-weight="700" letter-spacing="2">MULTI-AGENT</text>
	<text x="88" y="288" fill="#F4F7FB" font-family="Space Grotesk, Arial, sans-serif" font-size="166" font-weight="700" letter-spacing="-4">GistClaw</text>
	<rect x="90" y="330" width="420" height="20" fill="#FF5C39" />
	<rect x="530" y="330" width="124" height="20" fill="#53C7F0" />
	<text x="90" y="404" fill="#97A6B6" font-family="IBM Plex Mono, monospace" font-size="30" font-weight="700" letter-spacing="2">FULLY AUTOMATED.</text>
	<text x="90" y="454" fill="#F4F7FB" font-family="IBM Plex Mono, monospace" font-size="30" font-weight="700" letter-spacing="2">WORKS LIKE ONE TEAM.</text>
	<rect x="90" y="504" width="164" height="14" fill="#314356" />
	<rect x="274" y="504" width="120" height="14" fill="#FF5C39" />
	<rect x="414" y="504" width="154" height="14" fill="#53C7F0" />
	<text x="90" y="556" fill="#6F8194" font-family="IBM Plex Mono, monospace" font-size="18" font-weight="700" letter-spacing="2">LOCAL-FIRST / SHARED WORKSPACE / APPROVAL GATES</text>
	<path d="M790 86V554" stroke="#314356" stroke-width="2" />
	<rect x="836" y="98" width="328" height="416" fill="#16212D" stroke="#314356" stroke-width="2" />
	<rect x="836" y="98" width="124" height="14" fill="#FF5C39" />
	<rect x="1086" y="500" width="78" height="14" fill="#53C7F0" />
	<rect x="742" y="178" width="124" height="10" fill="#314356" />
	<rect x="770" y="220" width="118" height="12" fill="#53C7F0" />
	<rect x="722" y="458" width="144" height="12" fill="#FF5C39" />
	<g transform="translate(744 92) scale(1.05)">
		<polygon points="148,214 190,150 230,170 256,140 282,170 322,150 364,214 332,254 180,254" fill="#16212D" stroke="#4C637C" stroke-width="6" />
		<rect x="182" y="168" width="148" height="16" fill="#FF5C39" />
		<rect x="186" y="190" width="140" height="32" fill="#0A0F14" stroke="#4C637C" stroke-width="4" />
		<rect x="198" y="199" width="22" height="14" fill="#F4F7FB" />
		<rect x="228" y="199" width="22" height="14" fill="#F4F7FB" />
		<rect x="258" y="199" width="22" height="14" fill="#F4F7FB" />
		<rect x="288" y="199" width="22" height="14" fill="#F4F7FB" />
		<path d="M88 270 L172 224 L220 240 L204 276 L150 310 L110 336 L88 314 Z" fill="#FF5C39" />
		<path d="M424 270 L340 224 L292 240 L308 276 L362 310 L402 336 L424 314 Z" fill="#FF5C39" />
		<path d="M110 286 L156 262 L180 270 L166 294 L126 318 Z" fill="#F4F7FB" />
		<path d="M402 286 L356 262 L332 270 L346 294 L386 318 Z" fill="#F4F7FB" />
		<path d="M206 252 L306 252 L324 316 L286 350 L226 350 L188 316 Z" fill="#16212D" stroke="#4C637C" stroke-width="6" />
		<rect x="220" y="270" width="72" height="14" fill="#FF5C39" />
		<rect x="236" y="348" width="40" height="38" fill="#F4F7FB" />
		<rect x="122" y="392" width="268" height="14" fill="#314356" />
		<rect x="122" y="392" width="96" height="14" fill="#FF5C39" />
		<circle cx="406" cy="399" r="8" fill="#FF5C39" />
	</g>
	<defs>
		<linearGradient id="banner-bg" x1="56" y1="56" x2="1224" y2="584" gradientUnits="userSpaceOnUse">
			<stop offset="0" stop-color="#16212D" />
			<stop offset="1" stop-color="#0A0F14" />
		</linearGradient>
	</defs>
</svg>
